<?xml version="1.0" encoding="UTF-8"?>
<svg width="5500px" height="670px" viewBox="0 0 5500 670" version="1.1" xmlns="http://www.w3.org/2000/svg" xmlns:xlink="http://www.w3.org/1999/xlink">
    <!-- Generator: Sketch 50 (54983) - http://www.bohemiancoding.com/sketch -->
    <title>Artboard</title>
    <desc>Created with Sketch.</desc>
    <defs></defs>
    <g id="Artboard" stroke="none" stroke-width="1" fill="none" fill-rule="evenodd">
        <g id="Logo">
            <path d="M75.6535902,545.836756 L95.4678219,545.836756 C140.853804,545.836756 177.550368,508.744289 177.550368,463.105491 L177.550368,205.174797 C177.550368,183.679013 194.696252,166.348149 215.728296,166.348149 C236.760339,166.348149 253.906224,183.679013 253.906224,205.174797 L253.906224,462.725622 C253.906224,508.664686 290.523459,545.836756 335.98877,545.836756 C381.374752,545.836756 418.071315,508.744289 418.071315,463.105491 L418.071315,205.174797 C418.071315,183.679013 435.2172,166.348149 456.249243,166.348149 C477.281287,166.348149 494.427172,183.679013 494.427172,205.174797 L494.427172,463.105491 C494.427172,508.744289 531.123735,545.836756 576.509717,545.836756 L596.34641,545.836756 C534.927469,621.584658 441.117739,670 336,670 C230.882261,670 137.072531,621.584658 75.6535902,545.836756 Z M45.4892871,501.932138 C17.1885231,452.786646 1,395.783839 1,335 C1,149.984609 150.984609,0 336,0 C521.015391,0 671,149.984609 671,335 C671,395.783839 654.811477,452.786646 626.510713,501.932138 L576.509717,501.932138 C555.477674,501.932138 538.331789,484.601274 538.331789,463.105491 L538.331789,205.174797 C538.331789,159.535999 501.635226,122.443532 456.249243,122.443532 C410.863261,122.443532 374.166698,159.535999 374.166698,205.174797 L374.166698,463.105491 C374.166698,484.601274 357.020813,501.932138 335.98877,501.932138 C314.920332,501.932138 297.810841,484.5634 297.810841,462.725622 L297.810841,205.174797 C297.810841,159.535999 261.114278,122.443532 215.728296,122.443532 C170.342314,122.443532 133.64575,159.535999 133.64575,205.174797 L133.64575,463.105491 C133.64575,484.601274 116.499866,501.932138 95.4678219,501.932138 L45.4892871,501.932138 Z" id="Combined-Shape" fill="#FFFFFF"></path>
            <path d="" id="Path-2" stroke="#979797"></path>
        </g>
        <path d="M978,489.401238 L1041.12072,167 L1144.05606,400.061136 L1250.68153,167 L1307.39307,489.401238 L1260.97506,489.401238 L1232.03664,308.390422 L1143.27919,503.190688 L1057.04657,308.196205 L1024.80644,489.401238 L978,489.401238 Z M1685.1679,416.569633 L1556.79006,416.569633 L1523.38463,489.401238 L1474.63601,489.401238 L1623.01826,170.690135 L1766.15664,489.401238 L1716.63115,489.401238 L1685.1679,416.569633 Z M1666.71723,374.035976 L1622.24139,272.071729 L1575.62917,374.035976 L1666.71723,374.035976 Z M2111.30291,234.199294 L2074.59578,255.951667 C2067.73339,244.039594 2061.1948,236.270967 2054.9798,232.645553 C2048.50585,228.502223 2040.15458,226.43059 2029.92573,226.43059 C2017.36626,226.43059 2006.94336,229.99121 1998.6567,237.112558 C1990.37004,244.104427 1986.22677,252.908871 1986.22677,263.526154 C1986.22677,278.157287 1997.10285,289.939704 2018.85533,298.873759 L2048.76484,311.109469 C2073.1069,320.949877 2090.91001,332.95888 2102.17468,347.136836 C2113.43936,361.314793 2119.07162,378.697095 2119.07162,399.284265 C2119.07162,426.863304 2109.87874,449.651276 2091.49272,467.648865 C2072.97721,485.775933 2049.99502,494.839331 2022.54546,494.839331 C1996.52017,494.839331 1975.02697,487.135443 1958.06522,471.727435 C1941.36242,456.319427 1930.93951,434.632011 1926.79618,406.664535 L1972.63154,396.565219 C1974.7032,414.17437 1978.32856,426.345219 1983.50772,433.07813 C1992.83021,446.026036 2006.42531,452.499891 2024.29342,452.499891 C2038.40664,452.499891 2050.12432,447.773977 2059.44681,438.322006 C2068.7693,428.870035 2073.43048,416.893401 2073.43048,402.391747 C2073.43048,396.56519 2072.62125,391.224259 2071.00276,386.368794 C2069.38427,381.513329 2066.85947,377.046369 2063.42827,372.967779 C2059.99708,368.889189 2055.56248,365.069614 2050.12436,361.50894 C2044.68624,357.948266 2038.21239,354.549491 2030.7026,351.312515 L2001.76418,339.271023 C1960.71932,321.920829 1940.19719,296.543315 1940.19719,263.137719 C1940.19719,240.608363 1948.80742,221.769443 1966.02814,206.620393 C1983.24885,191.341864 2004.67731,183.702715 2030.31417,183.702715 C2064.88508,183.702715 2091.88105,200.53474 2111.30291,234.199294 Z M2400.12607,232.0629 L2400.12607,489.401238 L2354.87337,489.401238 L2354.87337,232.0629 L2285.92612,232.0629 L2285.92612,189.529243 L2468.87911,189.529243 L2468.87911,232.0629 L2400.12607,232.0629 Z M2812.86007,232.0629 L2692.63937,232.0629 L2692.63937,304.117635 L2809.36415,304.117635 L2809.36415,346.651292 L2692.63937,346.651292 L2692.63937,446.867581 L2812.86007,446.867581 L2812.86007,489.401238 L2647.38666,489.401238 L2647.38666,189.529243 L2812.86007,189.529243 L2812.86007,232.0629 Z M3111.97676,361.606048 L3204.81278,489.401238 L3149.46076,489.401238 L3063.8108,366.655706 L3055.65366,366.655706 L3055.65366,489.401238 L3010.40095,489.401238 L3010.40095,189.529243 L3063.42236,189.529243 C3103.04295,189.529243 3131.65739,196.974177 3149.26655,211.864269 C3168.6884,228.437588 3178.39919,250.31922 3178.39919,277.509822 C3178.39919,298.744387 3172.31376,317.00066 3160.14273,332.279189 C3147.9717,347.557717 3131.91654,357.33324 3111.97676,361.606048 Z M3055.65366,327.229531 L3070.02576,327.229531 C3112.88333,327.229531 3134.31179,310.850676 3134.31179,278.092475 C3134.31179,247.405938 3113.46597,232.0629 3071.77372,232.0629 L3055.65366,232.0629 L3055.65366,327.229531 Z M3435.37066,359.85809 L3337.48498,189.529243 L3389.5353,189.529243 L3458.09412,309.36151 L3526.84716,189.529243 L3578.89748,189.529243 L3480.62336,359.85809 L3480.62336,489.401238 L3435.37066,489.401238 L3435.37066,359.85809 Z M4057.68703,367.626794 L4057.68703,489.401238 L4012.43433,489.401238 L4012.43433,189.529243 L4063.70778,189.529243 C4088.82671,189.529243 4107.79511,191.277184 4120.61354,194.773119 C4133.56144,198.269053 4144.95543,204.872386 4154.79584,214.583315 C4172.01655,231.415593 4180.62678,252.649839 4180.62678,278.286692 C4180.62678,305.736252 4171.43391,327.488407 4153.04788,343.54381 C4134.66185,359.599213 4109.86699,367.626794 4078.66253,367.626794 L4057.68703,367.626794 Z M4057.68703,325.67579 L4074.58396,325.67579 C4116.14674,325.67579 4136.92782,309.685366 4136.92782,277.70404 C4136.92782,246.758545 4115.49935,231.28603 4072.64179,231.28603 L4057.68703,231.28603 L4057.68703,325.67579 Z M4519.55808,416.569633 L4391.18024,416.569633 L4357.77481,489.401238 L4309.02619,489.401238 L4457.40845,170.690135 L4600.54683,489.401238 L4551.02134,489.401238 L4519.55808,416.569633 Z M4501.10741,374.035976 L4456.63158,272.071729 L4410.01935,374.035976 L4501.10741,374.035976 Z M4842.17511,232.0629 L4842.17511,489.401238 L4796.92241,489.401238 L4796.92241,232.0629 L4727.97515,232.0629 L4727.97515,189.529243 L4910.92814,189.529243 L4910.92814,232.0629 L4842.17511,232.0629 Z M5134.6884,306.836681 L5264.03734,306.836681 L5264.03734,189.529243 L5309.29004,189.529243 L5309.29004,489.401238 L5264.03734,489.401238 L5264.03734,349.370339 L5134.6884,349.370339 L5134.6884,489.401238 L5089.4357,489.401238 L5089.4357,189.529243 L5134.6884,189.529243 L5134.6884,306.836681 Z" id="MASTERY-PATH" fill="#FFFFFF"></path>
    </g>
</svg>