<?xml version="1.0" encoding="UTF-8"?>
<svg width="670px" height="670px" viewBox="0 0 670 670" version="1.1" xmlns="http://www.w3.org/2000/svg" xmlns:xlink="http://www.w3.org/1999/xlink">
    <!-- Generator: Sketch 50 (54983) - http://www.bohemiancoding.com/sketch -->
    <title>Artboard</title>
    <desc>Created with Sketch.</desc>
    <defs></defs>
    <g id="Artboard" stroke="none" stroke-width="1" fill="none" fill-rule="evenodd">
        <g id="Logo">
            <path d="M75.6535902,545.836756 L95.4678219,545.836756 C140.853804,545.836756 177.550368,508.744289 177.550368,463.105491 L177.550368,205.174797 C177.550368,183.679013 194.696252,166.348149 215.728296,166.348149 C236.760339,166.348149 253.906224,183.679013 253.906224,205.174797 L253.906224,462.725622 C253.906224,508.664686 290.523459,545.836756 335.98877,545.836756 C381.374752,545.836756 418.071315,508.744289 418.071315,463.105491 L418.071315,205.174797 C418.071315,183.679013 435.2172,166.348149 456.249243,166.348149 C477.281287,166.348149 494.427172,183.679013 494.427172,205.174797 L494.427172,463.105491 C494.427172,508.744289 531.123735,545.836756 576.509717,545.836756 L596.34641,545.836756 C534.927469,621.584658 441.117739,670 336,670 C230.882261,670 137.072531,621.584658 75.6535902,545.836756 Z M45.4892871,501.932138 C17.1885231,452.786646 1,395.783839 1,335 C1,149.984609 150.984609,0 336,0 C521.015391,0 671,149.984609 671,335 C671,395.783839 654.811477,452.786646 626.510713,501.932138 L576.509717,501.932138 C555.477674,501.932138 538.331789,484.601274 538.331789,463.105491 L538.331789,205.174797 C538.331789,159.535999 501.635226,122.443532 456.249243,122.443532 C410.863261,122.443532 374.166698,159.535999 374.166698,205.174797 L374.166698,463.105491 C374.166698,484.601274 357.020813,501.932138 335.98877,501.932138 C314.920332,501.932138 297.810841,484.5634 297.810841,462.725622 L297.810841,205.174797 C297.810841,159.535999 261.114278,122.443532 215.728296,122.443532 C170.342314,122.443532 133.64575,159.535999 133.64575,205.174797 L133.64575,463.105491 C133.64575,484.601274 116.499866,501.932138 95.4678219,501.932138 L45.4892871,501.932138 Z" id="Combined-Shape" fill="#FFFFFF"></path>
            <path d="" id="Path-2" stroke="#979797"></path>
        </g>
    </g>
</svg>